<mxfile host="Electron" agent="Mozilla/5.0 (Windows NT 10.0; Win64; x64) AppleWebKit/537.36 (KHTML, like Gecko) draw.io/24.7.5 Chrome/126.0.6478.183 Electron/31.3.0 Safari/537.36" version="24.7.5" pages="2">
  <diagram name="Page-1" id="5f0bae14-7c28-e335-631c-24af17079c00">
    <mxGraphModel dx="980" dy="621" grid="1" gridSize="10" guides="1" tooltips="1" connect="1" arrows="1" fold="1" page="1" pageScale="1" pageWidth="1100" pageHeight="850" background="none" math="0" shadow="0">
      <root>
        <mxCell id="0" />
        <mxCell id="1" parent="0" />
        <mxCell id="39150e848f15840c-10" value="QSE" style="shape=component;align=left;spacingLeft=36;rounded=0;shadow=0;comic=0;labelBackgroundColor=none;strokeWidth=1;fontFamily=Verdana;fontSize=12;html=1;" parent="1" vertex="1">
          <mxGeometry x="460" y="175" width="80" height="60" as="geometry" />
        </mxCell>
        <mxCell id="iZPEShM9lby_EYqgSwIC-6" value="shapecomparator" style="shape=folder;fontStyle=1;tabWidth=110;tabHeight=30;tabPosition=left;html=1;boundedLbl=1;labelInHeader=1;container=1;collapsible=0;recursiveResize=0;whiteSpace=wrap;" vertex="1" parent="1">
          <mxGeometry x="90" y="130" width="340" height="210" as="geometry" />
        </mxCell>
        <mxCell id="iZPEShM9lby_EYqgSwIC-9" style="edgeStyle=orthogonalEdgeStyle;rounded=0;orthogonalLoop=1;jettySize=auto;html=1;" edge="1" parent="iZPEShM9lby_EYqgSwIC-6" source="39150e848f15840c-5" target="iZPEShM9lby_EYqgSwIC-8">
          <mxGeometry relative="1" as="geometry" />
        </mxCell>
        <mxCell id="39150e848f15840c-5" value="shapecomparator" style="shape=component;align=left;spacingLeft=36;rounded=0;shadow=0;comic=0;labelBackgroundColor=none;strokeWidth=1;fontFamily=Verdana;fontSize=12;html=1;" parent="iZPEShM9lby_EYqgSwIC-6" vertex="1">
          <mxGeometry x="90" y="45" width="160" height="60" as="geometry" />
        </mxCell>
        <mxCell id="iZPEShM9lby_EYqgSwIC-8" value="Database" style="shape=cylinder3;whiteSpace=wrap;html=1;boundedLbl=1;backgroundOutline=1;size=15;" vertex="1" parent="iZPEShM9lby_EYqgSwIC-6">
          <mxGeometry x="125" y="145" width="90" height="50" as="geometry" />
        </mxCell>
        <mxCell id="39150e848f15840c-11" style="edgeStyle=none;rounded=0;html=1;dashed=1;labelBackgroundColor=none;startArrow=none;startFill=0;startSize=8;endArrow=open;endFill=0;endSize=16;fontFamily=Verdana;fontSize=12;entryX=1;entryY=0.5;entryDx=0;entryDy=0;" parent="1" source="39150e848f15840c-10" target="39150e848f15840c-5" edge="1">
          <mxGeometry relative="1" as="geometry">
            <mxPoint x="437.5925660236635" y="86.50791373456877" as="targetPoint" />
          </mxGeometry>
        </mxCell>
        <mxCell id="iZPEShM9lby_EYqgSwIC-13" value="Web Browser" style="rounded=0;whiteSpace=wrap;html=1;" vertex="1" parent="1">
          <mxGeometry x="90" y="40" width="340" height="60" as="geometry" />
        </mxCell>
        <mxCell id="iZPEShM9lby_EYqgSwIC-14" style="edgeStyle=orthogonalEdgeStyle;rounded=0;orthogonalLoop=1;jettySize=auto;html=1;entryX=0.502;entryY=0.139;entryDx=0;entryDy=0;entryPerimeter=0;" edge="1" parent="1" source="iZPEShM9lby_EYqgSwIC-13" target="iZPEShM9lby_EYqgSwIC-6">
          <mxGeometry relative="1" as="geometry" />
        </mxCell>
      </root>
    </mxGraphModel>
  </diagram>
  <diagram id="-FoP-tzj-GzmlICNaZ3b" name="Seite-2">
    <mxGraphModel dx="730" dy="444" grid="1" gridSize="10" guides="1" tooltips="1" connect="1" arrows="1" fold="1" page="1" pageScale="1" pageWidth="827" pageHeight="1169" math="0" shadow="0">
      <root>
        <mxCell id="0" />
        <mxCell id="1" parent="0" />
        <mxCell id="Qshi6b0GB0ZuawaEkut4-1" value="QSE - QueryBased" style="shape=component;align=left;spacingLeft=36;rounded=0;shadow=0;comic=0;labelBackgroundColor=none;strokeWidth=1;fontFamily=Verdana;fontSize=12;html=1;" parent="1" vertex="1">
          <mxGeometry x="320" y="172.5" width="180" height="65" as="geometry" />
        </mxCell>
        <mxCell id="Qshi6b0GB0ZuawaEkut4-2" value="SPARQL-ShapeChecker" style="shape=folder;fontStyle=1;tabWidth=110;tabHeight=30;tabPosition=left;html=1;boundedLbl=1;labelInHeader=1;container=1;collapsible=0;recursiveResize=0;whiteSpace=wrap;" parent="1" vertex="1">
          <mxGeometry x="80" y="130" width="210" height="130" as="geometry" />
        </mxCell>
        <mxCell id="Qshi6b0GB0ZuawaEkut4-4" value="SPARQL-&lt;div&gt;ShapeChecker&lt;/div&gt;" style="shape=component;align=left;spacingLeft=36;rounded=0;shadow=0;comic=0;labelBackgroundColor=none;strokeWidth=1;fontFamily=Verdana;fontSize=12;html=1;" parent="Qshi6b0GB0ZuawaEkut4-2" vertex="1">
          <mxGeometry x="20" y="45" width="160" height="60" as="geometry" />
        </mxCell>
        <mxCell id="Qshi6b0GB0ZuawaEkut4-6" style="edgeStyle=none;rounded=0;html=1;dashed=1;labelBackgroundColor=none;startArrow=none;startFill=0;startSize=8;endArrow=open;endFill=0;endSize=16;fontFamily=Verdana;fontSize=12;entryX=1;entryY=0.5;entryDx=0;entryDy=0;" parent="1" source="Qshi6b0GB0ZuawaEkut4-1" target="Qshi6b0GB0ZuawaEkut4-4" edge="1">
          <mxGeometry relative="1" as="geometry">
            <mxPoint x="437.5925660236635" y="86.50791373456877" as="targetPoint" />
          </mxGeometry>
        </mxCell>
        <mxCell id="Qshi6b0GB0ZuawaEkut4-9" style="edgeStyle=orthogonalEdgeStyle;rounded=0;orthogonalLoop=1;jettySize=auto;html=1;" parent="1" source="Qshi6b0GB0ZuawaEkut4-5" target="Qshi6b0GB0ZuawaEkut4-4" edge="1">
          <mxGeometry relative="1" as="geometry" />
        </mxCell>
        <mxCell id="Qshi6b0GB0ZuawaEkut4-5" value="GraphDB" style="shape=cylinder3;whiteSpace=wrap;html=1;boundedLbl=1;backgroundOutline=1;size=15;" parent="1" vertex="1">
          <mxGeometry x="135" y="300" width="90" height="50" as="geometry" />
        </mxCell>
      </root>
    </mxGraphModel>
  </diagram>
</mxfile>
